<svg width="32" height="32" viewBox="0 0 32 32" fill="none" xmlns="http://www.w3.org/2000/svg">
	<style>
		path {
		    fill: #F9D342;
		}
		@media (prefers-color-scheme: light) {
			path {
				fill: #2D2C2A;
			}
		}
	</style>
    <path d="M29.65 18.9899C29.5629 18.7553 29.4627 18.5258 29.35 18.3024L24.1625 6.47739C24.1106 6.36526 24.0386 6.26358 23.95 6.17739C23.5785 5.80511 23.1372 5.50976 22.6513 5.30824C22.1655 5.10672 21.6447 5.00299 21.1188 5.00299C20.5928 5.00299 20.072 5.10672 19.5862 5.30824C19.1004 5.50976 18.659 5.80511 18.2875 6.17739C18.1959 6.26944 18.1234 6.37864 18.074 6.49876C18.0247 6.61887 17.9996 6.74754 18 6.87739V10.5024H14V6.87739C14.0005 6.74754 13.9753 6.61887 13.926 6.49876C13.8766 6.37864 13.8041 6.26944 13.7125 6.17739C13.341 5.80511 12.8997 5.50976 12.4138 5.30824C11.928 5.10672 11.4072 5.00299 10.8813 5.00299C10.3553 5.00299 9.8345 5.10672 9.34868 5.30824C8.86285 5.50976 8.42154 5.80511 8.05001 6.17739C7.96146 6.26358 7.88944 6.36526 7.83751 6.47739L2.65 18.3024C2.53729 18.5258 2.43713 18.7553 2.35 18.9899C2.11771 19.6354 1.99928 20.3164 2 21.0024C2 22.5937 2.63214 24.1198 3.75736 25.245C4.88258 26.3702 6.40871 27.0024 8.00001 27.0024C9.5913 27.0024 11.1174 26.3702 12.2426 25.245C13.3679 24.1198 14 22.5937 14 21.0024V12.5024H18V21.0024C18 22.5937 18.6322 24.1198 19.7574 25.245C20.8826 26.3702 22.4087 27.0024 24 27.0024C25.5913 27.0024 27.1174 26.3702 28.2427 25.245C29.3679 24.1198 30 22.5937 30 21.0024C30.0007 20.3164 29.8823 19.6354 29.65 18.9899V18.9899ZM9.58751 7.47739C9.92054 7.19638 10.3358 7.03106 10.7708 7.00626C11.2059 6.98147 11.6372 7.09854 12 7.33989V16.5399C10.9052 15.5463 9.47847 14.9979 8.00001 15.0024C7.37213 15.0012 6.74792 15.0982 6.15 15.2899L9.58751 7.47739ZM8.00001 25.0024C7.35782 25.0048 6.72455 24.8521 6.15407 24.5572C5.58358 24.2623 5.09275 23.834 4.72333 23.3088C4.3539 22.7835 4.11682 22.1767 4.03223 21.5401C3.94765 20.9035 4.01807 20.2559 4.2375 19.6524L4.4625 19.1524C4.79078 18.5231 5.2806 17.9925 5.88168 17.615C6.48276 17.2375 7.17346 17.0268 7.88289 17.0044C8.59232 16.982 9.29493 17.1488 9.9186 17.4877C10.5423 17.8265 11.0646 18.3252 11.4318 18.9326C11.7991 19.54 11.9982 20.2341 12.0085 20.9438C12.0189 21.6535 11.8403 22.3532 11.491 22.9711C11.1416 23.589 10.6342 24.1027 10.0207 24.4597C9.40721 24.8167 8.70979 25.004 8.00001 25.0024ZM20 7.33989C20.3628 7.09854 20.7942 6.98147 21.2292 7.00626C21.6642 7.03106 22.0795 7.19638 22.4125 7.47739L25.85 15.2899C25.2521 15.0982 24.6279 15.0012 24 15.0024C22.5216 14.9979 21.0948 15.5463 20 16.5399V7.33989ZM24 25.0024C23.2902 25.004 22.5928 24.8167 21.9793 24.4597C21.3658 24.1027 20.8584 23.589 20.5091 22.9711C20.1597 22.3532 19.9811 21.6535 19.9915 20.9438C20.0019 20.2341 20.2009 19.54 20.5682 18.9326C20.9355 18.3252 21.4577 17.8265 22.0814 17.4877C22.7051 17.1488 23.4077 16.982 24.1171 17.0044C24.8266 17.0268 25.5173 17.2375 26.1183 17.615C26.7194 17.9925 27.2092 18.5231 27.5375 19.1524L27.7625 19.6524C27.9819 20.2559 28.0524 20.9035 27.9678 21.5401C27.8832 22.1767 27.6461 22.7835 27.2767 23.3088C26.9073 23.834 26.4164 24.2623 25.846 24.5572C25.2755 24.8521 24.6422 25.0048 24 25.0024V25.0024Z"/>
</svg>
